<svg width="140" height="56" viewBox="0 0 140 56" fill="none" xmlns="http://www.w3.org/2000/svg">
<path fill-rule="evenodd" clip-rule="evenodd" d="M38.5715 16.7499L27.062 39.2499H16.2512L21.068 29.9249H20.8518C16.8781 35.0834 10.9491 38.4793 2.50122 39.2499V30.054C2.50122 30.054 7.90553 29.7348 11.0826 26.3946H2.50122V16.7501H12.1457V24.6825L12.3622 24.6816L16.3033 16.7501H23.5972V24.6322L23.8136 24.6319L27.9026 16.7499H38.5715Z" fill="black"/>
<path d="M101.334 36.7664H104.44V18.9374H101.334V36.7664Z" fill="black"/>
<path fill-rule="evenodd" clip-rule="evenodd" d="M84.2104 36.5843C84.8854 36.8649 85.5719 37.0053 86.2698 37.0053C87.4227 37.0053 88.4543 36.7247 89.3645 36.1633C90.2747 35.6021 90.9802 34.8284 91.4808 33.8423C91.9814 32.8487 92.2317 31.7222 92.2317 30.4631C92.2317 29.2039 91.9738 28.0776 91.458 27.0839C90.9422 26.0903 90.2254 25.3204 89.3075 24.7742C88.3898 24.2205 87.3468 23.9475 86.1787 23.955C85.4354 23.955 84.7224 24.0992 84.0397 24.3874C83.357 24.6756 82.7882 25.0852 82.333 25.6162C82.2979 25.6566 82.2638 25.6974 82.2307 25.7387V18.9488H79.1132V36.7664H82.2079L82.2017 35.1019C82.2817 35.2001 82.3673 35.2959 82.4582 35.3897C82.9512 35.8979 83.5353 36.2961 84.2104 36.5843ZM87.3962 33.7058C86.8879 34.0168 86.3077 34.1723 85.6553 34.1723C85.0105 34.1723 84.4189 34.0129 83.8804 33.6944C83.3418 33.3682 82.9133 32.9246 82.5947 32.3632C82.2837 31.8019 82.1282 31.1647 82.1282 30.4517C82.1207 29.7387 82.2723 29.1016 82.5833 28.5403C82.9019 27.9714 83.3304 27.5314 83.869 27.2205C84.4075 26.9019 85.003 26.7464 85.6553 26.754C86.3077 26.7464 86.8879 26.8981 87.3962 27.2091C87.9119 27.5125 88.3063 27.9486 88.5794 28.5175C88.86 29.0788 89.0004 29.7236 89.0004 30.4517C89.0004 31.1799 88.86 31.8247 88.5794 32.3859C88.3063 32.9473 87.9119 33.3872 87.3962 33.7058Z" fill="black"/>
<path d="M43.0713 20.0183H46.6212L49.7967 31.6153L53.1748 20.0183H56.133L59.7967 31.3825L62.8459 20.0183H66.0999L61.2985 36.7664H58.2379L54.5124 25.6644L51.0927 36.7664H47.9979L43.0713 20.0183Z" fill="black"/>
<path fill-rule="evenodd" clip-rule="evenodd" d="M71.3425 37.0621C70.106 37.0698 68.991 36.7966 67.9974 36.243C67.0113 35.6816 66.2339 34.9041 65.6649 33.9105C65.1036 32.9169 64.823 31.7829 64.823 30.5085C64.823 29.2721 65.1112 28.1534 65.6877 27.1521C66.2641 26.1509 67.0454 25.3696 68.0315 24.8083C69.0176 24.247 70.1174 23.9664 71.331 23.9664C72.6964 23.9664 73.891 24.2698 74.915 24.8766C75.9466 25.4834 76.7165 26.3443 77.2247 27.4593C77.7405 28.5668 77.9264 29.8373 77.7822 31.2709H68.0364C68.0636 31.842 68.2061 32.3616 68.4639 32.8296C68.7521 33.3454 69.1541 33.7474 69.6699 34.0356C70.1857 34.3239 70.7621 34.468 71.3994 34.468C71.8848 34.4604 72.3361 34.377 72.7533 34.2178C73.1705 34.0509 73.5231 33.8271 73.8114 33.5464C74.1072 33.2658 74.3159 32.9473 74.4372 32.5908H77.6913C77.494 33.463 77.0996 34.2405 76.508 34.9231C75.9162 35.5983 75.173 36.1254 74.2779 36.5046C73.3829 36.8839 72.4044 37.0698 71.3425 37.0621ZM68.4753 28.142C68.2935 28.459 68.1675 28.8003 68.0974 29.166H74.5577C74.5109 28.704 74.3682 28.283 74.13 27.9031C73.8569 27.4555 73.4853 27.1104 73.015 26.8677C72.5447 26.6174 72.0137 26.4922 71.4221 26.4922C70.7925 26.4922 70.2199 26.6363 69.704 26.9246C69.1882 27.2128 68.7786 27.6186 68.4753 28.142Z" fill="black"/>
<path d="M94.519 24.2281C94.519 23.2117 94.7502 22.309 95.213 21.5202C95.6756 20.7237 96.3242 20.1055 97.1586 19.6656C98.0005 19.2181 98.9829 18.9867 100.105 18.9716V21.7363C99.582 21.7439 99.1345 21.8539 98.7629 22.0663C98.3987 22.2711 98.1181 22.5707 97.9209 22.9651C97.7393 23.3283 97.6414 23.7492 97.627 24.2281H100.037V26.8563H97.6251V36.7664H94.519V26.8563H92.5165V24.2281H94.519Z" fill="black"/>
<path fill-rule="evenodd" clip-rule="evenodd" d="M112.336 37.0393C111.069 37.0393 109.935 36.7625 108.934 36.2088C107.94 35.6475 107.159 34.8738 106.59 33.8877C106.029 32.8941 105.748 31.7677 105.748 30.5085C105.748 29.2418 106.029 28.1116 106.59 27.118C107.159 26.1167 107.94 25.3392 108.934 24.7855C109.935 24.2318 111.069 23.9549 112.336 23.9549C113.61 23.9549 114.748 24.2318 115.749 24.7855C116.758 25.3392 117.543 26.1129 118.105 27.1066C118.666 28.1002 118.95 29.2342 118.958 30.5085C118.95 31.7677 118.666 32.8941 118.105 33.8877C117.551 34.8738 116.77 35.6475 115.761 36.2088C114.752 36.7625 113.61 37.0393 112.336 37.0393ZM112.336 34.1836C113.004 34.1836 113.595 34.0318 114.111 33.7285C114.627 33.4175 115.025 32.9851 115.306 32.4313C115.586 31.8701 115.727 31.2291 115.727 30.5085C115.727 29.7803 115.586 29.1356 115.306 28.5743C115.025 28.013 114.627 27.5807 114.111 27.2772C113.595 26.9663 113.004 26.8108 112.336 26.8108C111.676 26.8108 111.088 26.9663 110.572 27.2772C110.064 27.5807 109.67 28.013 109.389 28.5743C109.109 29.1356 108.972 29.7803 108.98 30.5085C108.98 31.2291 109.12 31.8701 109.401 32.4313C109.689 32.9851 110.083 33.4175 110.584 33.7285C111.092 34.0318 111.676 34.1836 112.336 34.1836Z" fill="black"/>
<path d="M122.314 24.2281H118.856L122.599 36.7664H125.625L128.087 28.7581L130.745 36.7664H133.726L137.481 24.2281H134.352L132.222 32.0324L129.869 24.2281H126.843L124.5 32.2043L122.314 24.2281Z" fill="black"/>
</svg>
